# xmcd
#
# Track frame offsets:
# 150
# 21235
# 35116
# 43638
# 54725
# 70658
# 77075
# 87889
# 98178
# 103689
# 119372
# 135783
# 144210
# 160343
# 169799
# 178545
# 188821
# 197294
#
# Disc length: 2854 seconds
#
#
# Revision: 0
# Processed by: cddbd v1.5.2PL0 Copyright (c) Steve Scherf et al.
# Submitted via: FreeRIP 2.945 
#
DISCID=e80b2412
DTITLE=S. Zulsar - Blue Sky
DYEAR=1999
DGENRE=National Folk
TTITLE0=Music Of Mongolian Khuumii
TTITLE1=The Plan Through Four Seasons
TTITLE2=Four Mountains 1
TTITLE3=A White Mountain
TTITLE4=A Ghandii Trec
TTITLE5=The Black Horse
TTITLE6=Four Mountains 2
TTITLE7=The High Mountains In Gobi
TTITLE8=A Horse-Herdsman
TTITLE9=A Four Year Old Brown Horse, Gooj Nanaa
TTITLE10=Homeland
TTITLE11=Siilen Boor
TTITLE12=The Buyant River
TTITLE13=The Mirage Of Roush Rocks
TTITLE14=A Girls Ring
TTITLE15=The Tuula River
TTITLE16=Mongoi Kheer
TTITLE17=Altain Magtaal
EXTD=
EXTT0=
EXTT1=
EXTT2=
EXTT3=
EXTT4=
EXTT5=
EXTT6=
EXTT7=
EXTT8=
EXTT9=
EXTT10=
EXTT11=
EXTT12=
EXTT13=
EXTT14=
EXTT15=
EXTT16=
EXTT17=
PLAYORDER=
